<svg width="50" height="50" viewBox="0 0 50 50" fill="none" xmlns="http://www.w3.org/2000/svg">
<path d="M10.4167 45.8332C9.27083 45.8332 8.28993 45.4252 7.47396 44.6092C6.65799 43.7932 6.25 42.8123 6.25 41.6665V12.4998C6.25 11.354 6.65799 10.3731 7.47396 9.55713C8.28993 8.74116 9.27083 8.33317 10.4167 8.33317H12.5V4.1665H16.6667V8.33317H33.3333V4.1665H37.5V8.33317H39.5833C40.7292 8.33317 41.7101 8.74116 42.526 9.55713C43.342 10.3731 43.75 11.354 43.75 12.4998V41.6665C43.75 42.8123 43.342 43.7932 42.526 44.6092C41.7101 45.4252 40.7292 45.8332 39.5833 45.8332H10.4167ZM10.4167 41.6665H39.5833V20.8332H10.4167V41.6665ZM10.4167 16.6665H39.5833V12.4998H10.4167V16.6665ZM25 29.1665C24.4097 29.1665 23.9149 28.9668 23.5156 28.5675C23.1163 28.1682 22.9167 27.6734 22.9167 27.0832C22.9167 26.4929 23.1163 25.9981 23.5156 25.5988C23.9149 25.1995 24.4097 24.9998 25 24.9998C25.5903 24.9998 26.0851 25.1995 26.4844 25.5988C26.8837 25.9981 27.0833 26.4929 27.0833 27.0832C27.0833 27.6734 26.8837 28.1682 26.4844 28.5675C26.0851 28.9668 25.5903 29.1665 25 29.1665ZM16.6667 29.1665C16.0764 29.1665 15.5816 28.9668 15.1823 28.5675C14.783 28.1682 14.5833 27.6734 14.5833 27.0832C14.5833 26.4929 14.783 25.9981 15.1823 25.5988C15.5816 25.1995 16.0764 24.9998 16.6667 24.9998C17.2569 24.9998 17.7517 25.1995 18.151 25.5988C18.5503 25.9981 18.75 26.4929 18.75 27.0832C18.75 27.6734 18.5503 28.1682 18.151 28.5675C17.7517 28.9668 17.2569 29.1665 16.6667 29.1665ZM33.3333 29.1665C32.7431 29.1665 32.2483 28.9668 31.849 28.5675C31.4497 28.1682 31.25 27.6734 31.25 27.0832C31.25 26.4929 31.4497 25.9981 31.849 25.5988C32.2483 25.1995 32.7431 24.9998 33.3333 24.9998C33.9236 24.9998 34.4184 25.1995 34.8177 25.5988C35.217 25.9981 35.4167 26.4929 35.4167 27.0832C35.4167 27.6734 35.217 28.1682 34.8177 28.5675C34.4184 28.9668 33.9236 29.1665 33.3333 29.1665ZM25 37.4998C24.4097 37.4998 23.9149 37.3002 23.5156 36.9009C23.1163 36.5016 22.9167 36.0068 22.9167 35.4165C22.9167 34.8262 23.1163 34.3314 23.5156 33.9321C23.9149 33.5328 24.4097 33.3332 25 33.3332C25.5903 33.3332 26.0851 33.5328 26.4844 33.9321C26.8837 34.3314 27.0833 34.8262 27.0833 35.4165C27.0833 36.0068 26.8837 36.5016 26.4844 36.9009C26.0851 37.3002 25.5903 37.4998 25 37.4998ZM16.6667 37.4998C16.0764 37.4998 15.5816 37.3002 15.1823 36.9009C14.783 36.5016 14.5833 36.0068 14.5833 35.4165C14.5833 34.8262 14.783 34.3314 15.1823 33.9321C15.5816 33.5328 16.0764 33.3332 16.6667 33.3332C17.2569 33.3332 17.7517 33.5328 18.151 33.9321C18.5503 34.3314 18.75 34.8262 18.75 35.4165C18.75 36.0068 18.5503 36.5016 18.151 36.9009C17.7517 37.3002 17.2569 37.4998 16.6667 37.4998ZM33.3333 37.4998C32.7431 37.4998 32.2483 37.3002 31.849 36.9009C31.4497 36.5016 31.25 36.0068 31.25 35.4165C31.25 34.8262 31.4497 34.3314 31.849 33.9321C32.2483 33.5328 32.7431 33.3332 33.3333 33.3332C33.9236 33.3332 34.4184 33.5328 34.8177 33.9321C35.217 34.3314 35.4167 34.8262 35.4167 35.4165C35.4167 36.0068 35.217 36.5016 34.8177 36.9009C34.4184 37.3002 33.9236 37.4998 33.3333 37.4998Z" fill="#FF5733"/>
</svg>
