<svg width="50" height="50" viewBox="0 0 50 50" fill="none" xmlns="http://www.w3.org/2000/svg">
<path d="M25 24.9998C26.1459 24.9998 27.1268 24.5918 27.9427 23.7759C28.7587 22.9599 29.1667 21.979 29.1667 20.8332C29.1667 19.6873 28.7587 18.7064 27.9427 17.8905C27.1268 17.0745 26.1459 16.6665 25 16.6665C23.8542 16.6665 22.8733 17.0745 22.0573 17.8905C21.2414 18.7064 20.8334 19.6873 20.8334 20.8332C20.8334 21.979 21.2414 22.9599 22.0573 23.7759C22.8733 24.5918 23.8542 24.9998 25 24.9998ZM25 40.3123C29.2362 36.4234 32.3785 32.8905 34.4271 29.7134C36.4757 26.5363 37.5 23.7151 37.5 21.2498C37.5 17.4651 36.2934 14.3662 33.8802 11.953C31.4671 9.53977 28.507 8.33317 25 8.33317C21.4931 8.33317 18.533 9.53977 16.1198 11.953C13.7066 14.3662 12.5 17.4651 12.5 21.2498C12.5 23.7151 13.5243 26.5363 15.573 29.7134C17.6216 32.8905 20.7639 36.4234 25 40.3123ZM25 45.8332C19.4098 41.0762 15.2344 36.6578 12.474 32.578C9.71358 28.4981 8.33337 24.7221 8.33337 21.2498C8.33337 16.0415 10.0087 11.8922 13.3594 8.80192C16.7101 5.71164 20.5903 4.1665 25 4.1665C29.4098 4.1665 33.29 5.71164 36.6407 8.80192C39.9914 11.8922 41.6667 16.0415 41.6667 21.2498C41.6667 24.7221 40.2865 28.4981 37.5261 32.578C34.7657 36.6578 30.5903 41.0762 25 45.8332Z" fill="#FF5733"/>
</svg>
