<svg width="245" height="355" viewBox="0 0 245 355" fill="none" xmlns="http://www.w3.org/2000/svg">
<path d="M125.811 306.164C127.345 321.722 124.316 336.962 120.95 352.22C117.49 352.856 114.031 353.323 110.534 353.641C112.939 344.217 114.658 334.63 115.676 324.957C116.416 320.395 116.213 315.73 115.078 311.25C113.358 305.79 109.3 301.527 105.018 297.656C106.396 296.311 107.965 295.177 109.674 294.29C111.303 293.379 113.137 292.901 115.003 292.901C116.869 292.901 118.704 293.379 120.333 294.29C124.185 296.665 125.363 301.639 125.811 306.164Z" fill="#CF5B44"/>
<path d="M115.078 311.25C116.213 315.729 116.416 320.394 115.676 324.956C114.658 334.629 112.939 344.216 110.534 353.641C107.673 353.903 104.924 354.052 101.988 354.108C104.913 338.206 103.346 321.804 97.4633 306.743C98.7161 304.967 100.044 303.265 101.409 301.619C102.533 300.228 103.738 298.904 105.018 297.655C109.3 301.526 113.358 305.789 115.078 311.25Z" fill="url(#paint0_linear_381_9)"/>
<path d="M97.4632 306.744C103.346 321.805 104.913 338.207 101.988 354.109C93.9675 354.292 85.9486 353.666 78.0535 352.239C81.2521 335.878 87.866 320.376 97.4632 306.744Z" fill="url(#paint1_linear_381_9)"/>
<path style="mix-blend-mode:screen" d="M103.092 302.704C94.4599 311.84 88.1215 322.895 84.5983 334.96C87.0797 336.648 90.0116 337.551 93.0129 337.551C96.0142 337.551 98.9461 336.648 101.428 334.96C103.75 333.205 105.648 330.948 106.978 328.358C108.309 325.768 109.038 322.912 109.113 320.001C109.337 314.167 105.99 307.734 103.092 302.704Z" fill="url(#paint2_linear_381_9)"/>
<path d="M164.668 205.88C184.863 215.436 196.7 239.09 189.333 260.463C185.153 271.744 177.689 281.514 167.903 288.512C154.72 298.311 138.171 305.734 121.454 301.938C119.432 301.475 117.449 300.849 115.527 300.068C120.885 301.125 126.405 301.052 131.734 299.854C137.063 298.656 142.083 296.36 146.474 293.112C158.18 284.529 165.173 270.785 168.782 256.742C171.344 246.869 172.316 236.005 167.978 226.824C162.574 215.342 149.765 208.779 137.143 207.395C130.993 206.79 124.791 206.973 118.687 207.937C132.767 200.495 149.597 198.756 164.668 205.88Z" fill="#CF5B44"/>
<path d="M167.922 226.786C172.26 236.023 171.288 246.888 168.726 256.705C165.098 270.748 158.124 284.492 146.418 293.075C142.043 296.32 137.04 298.619 131.729 299.826C126.417 301.033 120.912 301.122 115.564 300.087C109.732 297.723 104.463 294.159 100.098 289.626C95.7327 285.094 92.3696 279.694 90.2268 273.777C87.9706 267.086 87.102 260.006 87.6743 252.968C88.2466 245.93 90.2477 239.083 93.5553 232.845C99.234 222.179 108.009 213.483 118.724 207.9C124.828 206.935 131.031 206.753 137.181 207.358C149.765 208.779 162.574 215.305 167.922 226.786ZM131.197 244.457C132.599 241.637 133.299 238.521 133.237 235.372C133.175 232.224 132.353 229.137 130.842 226.375C129.843 224.675 128.42 223.265 126.712 222.281C125.004 221.298 123.07 220.775 121.099 220.765C121.834 216.364 123.254 212.105 125.307 208.143C121.709 211.839 118.958 216.273 117.247 221.139C110.403 222.71 104.345 228.619 101.315 234.228C100.6 235.481 100.029 236.811 99.6139 238.193C98.9724 240.276 98.7741 242.47 99.0317 244.634C99.2894 246.798 99.9972 248.884 101.11 250.758C101.972 252.123 103.118 253.285 104.47 254.166C105.822 255.047 107.348 255.626 108.945 255.863C109.562 255.976 110.179 256.013 110.815 256.069C108.625 270.066 111.906 284.368 119.977 296.011C113.807 283.585 111.983 269.448 114.798 255.863C118.219 255.314 121.473 254.004 124.321 252.029C127.169 250.055 129.538 247.468 131.253 244.457H131.197Z" fill="url(#paint3_linear_381_9)"/>
<path d="M130.897 226.375C132.409 229.137 133.231 232.224 133.293 235.372C133.355 238.521 132.655 241.637 131.253 244.457C129.521 247.428 127.149 249.977 124.309 251.918C121.469 253.858 118.233 255.142 114.835 255.676C112.02 269.261 113.844 283.398 120.015 295.824C111.943 284.181 108.662 269.879 110.852 255.882C110.235 255.882 109.618 255.789 108.982 255.676C107.386 255.439 105.859 254.86 104.507 253.979C103.155 253.098 102.009 251.936 101.147 250.572C100.034 248.697 99.3266 246.611 99.069 244.447C98.8113 242.283 99.0096 240.089 99.6511 238.006C100.066 236.624 100.637 235.294 101.353 234.041C104.382 228.544 110.441 222.56 117.284 220.952C118.996 216.086 121.746 211.652 125.344 207.956C123.291 211.918 121.871 216.177 121.136 220.578C123.129 220.604 125.079 221.154 126.792 222.171C128.505 223.188 129.921 224.638 130.897 226.375ZM130.897 240.567C131.415 238.777 131.642 236.914 131.571 235.051C131.571 234.864 131.571 234.677 131.571 234.49C131.571 234.303 131.571 234.098 131.571 233.911V233.424C131.571 233.032 131.458 232.62 131.365 232.228C131.381 232.141 131.381 232.052 131.365 231.966C131.365 231.741 131.365 231.498 131.215 231.274C131.066 231.05 130.935 230.32 130.767 229.853C130.598 229.385 130.43 229.03 130.243 228.637C129.737 227.603 129.061 226.661 128.242 225.851C128.089 225.692 127.927 225.542 127.756 225.402C126.032 223.979 123.836 223.258 121.604 223.383C114.723 223.607 108.141 229.722 104.962 235.425C104.364 236.5 103.881 237.634 103.522 238.81C101.839 244.719 103.952 251.899 110.665 253.04C113.447 253.429 116.283 253.14 118.93 252.198C119.897 251.862 120.84 251.462 121.754 251.002C122.535 250.607 123.29 250.163 124.016 249.674C126.525 248.03 128.592 245.795 130.037 243.167C130.222 242.822 130.384 242.466 130.523 242.101C130.683 241.599 130.808 241.087 130.897 240.567Z" fill="#CF5B44"/>
<path d="M131.571 235.05C131.642 236.913 131.415 238.776 130.897 240.567C130.753 241.09 130.572 241.602 130.355 242.1C130.216 242.465 130.053 242.821 129.869 243.166C128.424 245.795 126.357 248.029 123.848 249.673C123.122 250.162 122.366 250.606 121.585 251.001C120.671 251.461 119.728 251.861 118.762 252.197C116.487 252.988 114.078 253.318 111.675 253.17C108.346 250.402 107.486 245.241 108.758 240.81C109.109 239.631 109.592 238.496 110.197 237.425C113.358 231.815 119.958 225.607 126.84 225.383H127.588L128.074 225.832C128.892 226.642 129.569 227.583 130.075 228.618C130.262 229.01 130.43 229.422 130.598 229.833C130.767 230.245 130.916 230.768 131.047 231.254C131.178 231.741 131.159 231.722 131.197 231.946C131.212 232.033 131.212 232.121 131.197 232.208C131.197 232.601 131.346 233.012 131.402 233.405V233.891C131.402 234.078 131.402 234.284 131.402 234.471C131.402 234.658 131.571 234.957 131.571 235.05Z" fill="#C9FFEF"/>
<path d="M127.588 225.402H126.784C119.902 225.626 113.302 231.741 110.141 237.444C109.536 238.515 109.053 239.65 108.702 240.829C107.43 245.26 108.29 250.421 111.619 253.189C114.022 253.337 116.431 253.007 118.706 252.217C116.059 253.159 113.223 253.447 110.441 253.058C103.728 251.973 101.615 244.737 103.297 238.828C103.657 237.652 104.139 236.518 104.737 235.443C107.916 229.74 114.498 223.626 121.38 223.401C123.628 223.257 125.847 223.972 127.588 225.402Z" fill="#44CFB8"/>
<path d="M128.541 239.538C127.98 240.637 127.208 241.615 126.267 242.414C125.327 243.213 124.238 243.818 123.062 244.194C121.882 244.558 120.631 244.631 119.416 244.407C118.202 244.182 117.059 243.666 116.088 242.904C115.134 242.114 114.431 241.065 114.063 239.883C113.694 238.702 113.677 237.439 114.012 236.247C112.983 238.528 111.6 241.352 112.011 243.727C112.178 244.968 112.654 246.148 113.396 247.158C114.138 248.167 115.121 248.974 116.256 249.505C117.683 249.998 119.218 250.084 120.691 249.753C122.164 249.423 123.516 248.69 124.596 247.635C126.783 245.69 127.457 242.324 128.541 239.538Z" fill="#A4EDE0"/>
<path d="M122.932 238.566C125.12 237.949 127.737 236.453 127.588 233.816C127.4 232.708 126.782 231.718 125.867 231.063C124.953 230.408 123.818 230.141 122.707 230.32C117.677 231.03 116.368 240.38 122.932 238.566Z" fill="#EBFFFC"/>
<path style="mix-blend-mode:screen" d="M150.438 223.364C151.249 225.333 151.601 227.46 151.468 229.585C151.335 231.71 150.721 233.778 149.672 235.63C147.505 239.36 144.589 242.601 141.107 245.148C133.154 251.442 124.035 256.1 114.274 258.855C114.442 257.808 114.611 256.76 114.835 255.732C118.233 255.198 121.469 253.914 124.309 251.973C127.149 250.033 129.521 247.484 131.253 244.512C132.655 241.693 133.355 238.576 133.293 235.428C133.231 232.279 132.409 229.193 130.898 226.43C129.899 224.731 128.476 223.32 126.768 222.337C125.06 221.354 123.126 220.831 121.155 220.821C121.727 217.518 122.662 214.288 123.942 211.19C130.704 211.229 137.347 212.972 143.258 216.258C146.308 217.855 148.809 220.331 150.438 223.364ZM101.241 261.398C104.318 261.069 107.371 260.551 110.385 259.846C110.497 258.537 110.646 257.228 110.852 255.938C110.235 255.938 109.618 255.844 108.982 255.732C107.386 255.495 105.86 254.916 104.508 254.035C103.155 253.154 102.009 251.991 101.147 250.627C100.035 248.753 99.3268 246.667 99.0692 244.502C98.8115 242.338 99.0098 240.144 99.6513 238.061C100.066 236.68 100.637 235.35 101.353 234.097C104.382 228.599 110.441 222.616 117.285 221.007C118.556 217.396 120.4 214.012 122.745 210.985C118.436 210.966 114.162 211.752 110.142 213.303C103.223 218.496 97.5391 225.157 93.4992 232.807C89.5689 240.407 87.517 248.839 87.5155 257.396C87.9153 257.96 88.3797 258.474 88.8992 258.93C92.0407 261.79 96.8651 261.865 101.241 261.398Z" fill="url(#paint4_linear_381_9)"/>
<path d="M164.425 334.475C166.525 340.929 169.282 347.152 172.653 353.043C169.25 352.819 165.865 352.482 162.481 352.071C162.586 346.158 163.237 340.268 164.425 334.475Z" fill="#94122E"/>
<path d="M199.524 331.613C202.085 338.176 204.404 344.814 206.386 351.546C195.266 353.383 183.967 353.885 172.728 353.042C169.356 347.151 166.599 340.929 164.5 334.474L164.668 333.651C166.071 327.088 167.791 318.692 171.886 313.213C172.802 311.857 174.035 310.746 175.479 309.977C176.923 309.207 178.534 308.803 180.17 308.8C190.623 309.492 196.307 323.31 199.524 331.613Z" fill="url(#paint5_linear_381_9)"/>
<path d="M164.425 334.475C163.261 340.27 162.635 346.16 162.555 352.07C160.685 351.846 158.815 351.584 156.945 351.304C155.864 334.323 156.755 317.274 159.601 300.498C159.265 312.015 160.896 323.506 164.425 334.475Z" fill="#CF5B44"/>
<path d="M211.192 350.649C209.584 350.986 207.994 351.304 206.386 351.547C204.404 344.815 202.085 338.177 199.524 331.613C196.307 323.311 190.623 309.492 180.095 308.8C178.459 308.804 176.849 309.208 175.405 309.977C173.961 310.746 172.727 311.857 171.811 313.213C167.716 318.823 165.996 327.088 164.594 333.651L164.425 334.474C160.846 323.514 159.163 312.024 159.451 300.498C160.536 293.953 161.926 287.477 163.621 281.069C163.922 279.438 164.642 277.912 165.711 276.643C166.779 275.375 168.16 274.406 169.717 273.833C171.379 273.427 173.106 273.372 174.79 273.671C176.474 273.971 178.077 274.618 179.497 275.572C182.335 277.472 184.822 279.851 186.846 282.603C201.973 301.377 210.089 326.583 211.192 350.649Z" fill="url(#paint6_linear_381_9)"/>
<path style="mix-blend-mode:screen" d="M167.585 314.055C168.988 320.151 171.568 326.658 176.935 329.313C182.302 331.969 189.276 329.482 192.998 324.508C199.655 315.626 197.037 303.396 192.381 294.215C188.884 287.315 178.562 271.271 169.418 276.731C166.37 278.601 165.547 282.734 165.304 286.417C164.704 295.692 165.473 305.004 167.585 314.055Z" fill="url(#paint7_linear_381_9)"/>
<path d="M188.061 97.1437C185.219 121.116 174.598 143.63 163.621 165.134C158.18 168.07 152.402 171.511 146.792 174.484C143.828 185.878 143.324 197.773 145.315 209.376C120.554 210.975 95.6971 208.582 71.6959 202.289C69.0247 191.263 67.2549 180.038 66.404 168.724C61.4487 164.984 50.7715 155.018 50.7715 155.018C50.7715 155.018 48.2471 134.542 47.7609 127.605C46.747 112.853 48.1172 98.0337 51.8186 83.7177C58.3447 59.6331 73.5845 37.2688 95.687 25.7501C117.789 14.2314 146.923 15.2599 166.033 31.3599C184.527 46.8054 190.922 73.19 188.061 97.1437Z" fill="url(#paint8_radial_381_9)"/>
<path d="M234.323 98.4524C229.554 113.842 220.859 128.371 212.65 142.358C210.332 146.341 208.013 150.399 205.806 154.513C204.775 154.226 203.851 153.641 203.151 152.83C199.58 149.09 198.963 143.948 199.243 138.562C199.243 138.357 199.243 138.151 199.243 137.945C203.17 132.822 207.097 127.679 210.743 122.387C217.333 113.247 222.619 103.234 226.45 92.637C227.806 92.5244 229.166 92.7836 230.385 93.3865C231.604 93.9895 232.636 94.9134 233.369 96.0589C233.81 96.802 234.132 97.6097 234.323 98.4524Z" fill="url(#paint9_linear_381_9)"/>
<path d="M235.838 102.043C236.048 99.6192 235.878 97.1774 235.333 94.8063C235.031 93.6118 234.512 92.4833 233.799 91.4779C232.362 89.5947 230.238 88.3576 227.891 88.0372C225.942 87.7016 223.941 87.8689 222.075 88.5234C217.968 90.2157 214.399 92.9955 211.753 96.564C201.419 109.087 195.831 124.852 195.971 141.087C195.971 141.48 195.971 141.854 195.971 142.228C196.177 147.837 197.448 153.279 201.749 157.075C202.358 157.621 203.045 158.075 203.787 158.421C207.695 160.291 211.173 157.262 214.446 153.671C219.46 148.104 223.688 141.875 227.012 135.159C232.17 124.833 235.172 113.566 235.838 102.043ZM213.847 150.193C211.267 152.942 208.574 155.223 205.807 154.494C204.775 154.208 203.851 153.622 203.151 152.811C199.58 149.071 198.963 143.929 199.243 138.544C199.243 138.338 199.243 138.132 199.243 137.927C200.164 123.883 205.617 110.517 214.782 99.8364C217.127 96.8142 220.239 94.4765 223.795 93.0673C224.654 92.7883 225.548 92.6371 226.451 92.6185C227.808 92.5079 229.169 92.7699 230.389 93.3762C231.608 93.9826 232.639 94.9102 233.369 96.0592C233.815 96.7953 234.143 97.5966 234.342 98.434C234.798 100.733 234.842 103.094 234.473 105.409C232.523 122.147 225.3 137.832 213.847 150.193Z" fill="#94122E"/>
<path d="M234.454 105.41C232.539 122.174 225.335 137.894 213.885 150.288C211.304 153.037 208.611 155.318 205.844 154.589C208.05 150.475 210.369 146.417 212.688 142.434C220.897 128.372 229.517 113.918 234.36 98.5284C234.793 100.799 234.824 103.128 234.454 105.41ZM214.82 99.7999C205.654 110.48 200.201 123.846 199.281 137.89C203.207 132.767 207.134 127.624 210.781 122.332C217.37 113.192 222.656 103.179 226.488 92.582C225.586 92.6006 224.691 92.7518 223.833 93.0308C220.272 94.4504 217.159 96.8014 214.82 99.8373V99.7999Z" fill="url(#paint10_linear_381_9)"/>
<path d="M67.395 201.056C65.8616 200.625 64.347 200.158 62.8511 199.672C60.2145 191.425 57.5779 183.142 54.9226 174.895C60.1837 183.045 64.3755 191.837 67.395 201.056ZM198.065 15.1479C208.51 21.2249 217.047 30.1008 222.714 40.7734C228.381 51.446 230.951 63.4903 230.134 75.5464C229.774 79.7705 229.023 83.9521 227.89 88.0375C230.235 88.3657 232.357 89.6012 233.799 91.4781C234.511 92.4835 235.031 93.612 235.333 94.8066C236.787 89.451 237.646 83.9513 237.894 78.4074C238.979 52.0602 222.15 25.9748 198.065 15.1479ZM195.971 142.303C190.604 149.315 185.312 156.383 180.637 163.863C172.466 176.952 166.22 191.912 165.884 207.208C174.473 205.892 182.978 204.068 191.352 201.747C191.352 186.788 196.794 172.24 203.787 158.496C203.045 158.15 202.358 157.696 201.749 157.15C197.448 153.279 196.176 147.894 195.971 142.228V142.303Z" fill="#CF5B44"/>
<path d="M243.13 60.4748C240.104 45.4701 232.375 31.8201 221.065 21.5056C209.696 11.4454 194.886 5.79828 179.927 3.03079C151.41 -2.22368 119.528 -1.66271 93.7421 12.9227C72.8711 24.8461 57.2855 44.2262 50.1168 67.1691C44.264 86.1301 43.7217 107.653 44.8623 127.755C45.0306 130.821 45.2363 133.869 45.4794 136.861C46.8315 153.274 50.3139 169.441 55.8388 184.955C56.5867 187.068 59.5786 198.681 61.5607 199.298L62.7762 199.672C60.1396 191.425 57.503 183.142 54.8477 174.895C60.1102 183.051 64.3021 191.849 67.3201 201.074L71.677 202.271C69.0058 191.245 67.236 180.019 66.3851 168.706C61.4298 164.966 50.7526 154.999 50.7526 154.999C50.7526 154.999 48.2469 134.542 47.7607 127.605C46.7468 112.853 48.117 98.034 51.8184 83.7179C58.3445 59.6333 73.5843 37.2691 95.6868 25.7503C117.789 14.2316 146.923 15.2601 166.033 31.3601C184.527 46.8617 190.922 73.2463 188.061 97.2C185.2 121.154 174.597 143.686 163.621 165.19C158.18 168.126 152.402 171.567 146.792 174.54C143.828 185.934 143.324 197.829 145.315 209.433C152.196 209.021 159.052 208.286 165.884 207.226C166.22 191.893 172.466 177.008 180.637 163.881C185.312 156.402 190.604 149.333 195.971 142.321C195.971 141.947 195.971 141.573 195.971 141.181C195.813 124.92 201.403 109.125 211.753 96.583C214.399 93.0144 217.967 90.2346 222.075 88.5423C223.94 87.8878 225.942 87.7205 227.89 88.0561C229.023 83.9707 229.774 79.7891 230.134 75.565C230.951 63.5089 228.38 51.4647 222.714 40.7921C217.047 30.1194 208.509 21.2436 198.065 15.1666C222.15 25.9747 238.979 52.0601 237.894 78.4073C237.646 83.9513 236.787 89.4509 235.333 94.8065C235.877 97.1776 236.048 99.6194 235.837 102.043C235.172 113.566 232.169 124.834 227.011 135.159C223.688 141.875 219.46 148.104 214.446 153.672C211.173 157.262 207.695 160.254 203.787 158.421C196.793 172.165 191.408 186.657 191.352 201.673C195.092 200.644 198.832 199.503 202.422 198.269C206.872 176.26 219.12 156.607 229.255 136.281C234.364 126.491 238.455 116.202 241.466 105.577C245.527 90.8781 246.097 75.4333 243.13 60.4748Z" fill="url(#paint11_linear_381_9)"/>
<path style="mix-blend-mode:screen" d="M185.985 6.62088C189.644 14.0599 190.786 22.4863 189.239 30.6307C187.666 38.7466 184.535 46.481 180.02 53.4063C169.586 70.2356 154.122 83.2129 137.012 92.4129C119.902 101.613 100.979 107.11 81.9055 110.663C76.3919 111.933 70.7151 112.343 65.0762 111.879C62.2703 111.628 59.5428 110.82 57.0541 109.5C54.5653 108.18 52.3656 106.376 50.5843 104.193C41.7583 92.3007 49.051 71.6381 54.3242 59.6145C60.9734 44.2201 71.4851 30.8035 84.8413 20.664C112.965 -0.559615 152.963 -3.23361 185.985 6.62088Z" fill="url(#paint12_linear_381_9)"/>
<path d="M150.345 131.569C150.033 132.753 149.734 133.931 149.447 135.103C141.12 134.305 132.78 133.763 124.427 133.476C119.633 115.837 119.996 97.1927 125.475 79.7536C126.711 75.3629 128.732 71.2324 131.44 67.5617C132.81 65.7324 134.528 64.1914 136.495 63.0267C138.462 61.8619 140.639 61.0964 142.902 60.7739C145.753 60.637 148.59 61.2422 151.137 62.5303C153.684 63.8184 155.853 65.7453 157.432 68.1226C160.527 72.9482 162.013 78.6306 161.676 84.3536C161.387 89.4995 160.56 94.601 159.208 99.5747C157.432 107.484 151.915 121.041 150.345 131.569ZM84.8973 90.6365C85.1965 88.0186 85.4957 85.4007 85.7762 82.8015C86.2186 80.3279 86.2186 77.7954 85.7762 75.3218C85.5225 74.0817 84.9438 72.9313 84.0994 71.9883C83.255 71.0454 82.1752 70.3437 80.9705 69.9552C80.0565 69.7816 79.1165 69.7982 78.2092 70.0042C77.3019 70.2101 76.4468 70.6008 75.6973 71.1519C74.2155 72.2672 72.9484 73.642 71.9575 75.2097C68.689 80.227 66.2869 85.758 64.8517 91.5715C61.0865 106.207 61.8163 121.637 66.9461 135.851C72.2753 135.234 77.6233 134.711 82.9713 134.318C82.9713 133.57 82.8591 132.841 82.8217 132.111C82.7469 119.976 83.4388 104.063 84.8599 90.6365H84.8973Z" fill="#44CFB8"/>
<path d="M82.7095 104.737C82.3267 103.477 81.6299 102.336 80.6845 101.42C79.7391 100.504 78.5763 99.8436 77.3054 99.5008C76.0329 99.3463 74.7421 99.5214 73.5567 100.009C72.3714 100.497 71.3313 101.282 70.5363 102.287C68.9846 104.32 67.9167 106.68 67.4135 109.187C65.5107 116.81 65.5944 124.793 67.6566 132.374C67.9734 133.66 68.7352 134.793 69.807 135.572C74.1639 135.104 78.5396 134.674 82.8965 134.356C82.8965 133.608 82.7843 132.879 82.7469 132.15C82.7469 125.1 82.9713 116.76 83.4388 108.402C83.3473 107.155 83.1024 105.924 82.7095 104.737Z" fill="#C9FFEF"/>
<path d="M137.049 94.582C135.507 94.5861 133.982 94.905 132.567 95.5191C131.153 96.1332 129.878 97.0297 128.822 98.1536C123.941 103.053 123.362 108.868 123.399 115.45C123.442 121.542 124.214 127.606 125.699 133.514C132.144 133.751 138.589 134.15 145.034 134.711C145.296 130.653 145.95 121.285 146.025 120.256C146.418 114.983 148.363 110.121 147.259 104.717C146.231 99.6495 142.21 94.8064 137.049 94.582Z" fill="#C9FFEF"/>
<path style="mix-blend-mode:screen" d="M64.3096 119.433C64.5193 120.657 64.9845 121.823 65.6746 122.855C66.0195 123.371 66.4962 123.786 67.0551 124.055C67.6141 124.325 68.235 124.44 68.8535 124.389C70.3681 124.164 71.3592 122.725 72.0885 121.359C77.0624 112.01 78.2592 101.239 78.5023 90.6928C78.6268 89.1326 78.4749 87.5627 78.0535 86.0554C77.8841 85.2991 77.5092 84.6044 76.97 84.0477C76.4308 83.4911 75.7484 83.0941 74.9979 82.9007C74.2475 82.7073 73.4582 82.7249 72.7171 82.9516C71.9761 83.1783 71.312 83.6053 70.7982 84.1855C62.0096 92.0952 61.8039 108.812 64.3096 119.433Z" fill="url(#paint13_linear_381_9)"/>
<path style="mix-blend-mode:screen" d="M122.146 112.552C122.268 114.791 122.867 116.978 123.904 118.966C124.44 119.952 125.228 120.779 126.187 121.364C127.145 121.948 128.242 122.269 129.364 122.294C132.824 122.126 134.974 118.554 136.264 115.338C141.406 103.165 146.941 88.3362 143.613 75.0224C143.349 73.6851 142.739 72.4405 141.843 71.4133C140.947 70.3861 139.797 69.6123 138.508 69.1695C137.496 68.9428 136.448 68.934 135.432 69.1435C134.417 69.3531 133.457 69.7763 132.618 70.385C130.955 71.6136 129.551 73.1576 128.485 74.9289C121.754 85.2134 120.819 100.603 122.146 112.552Z" fill="url(#paint14_linear_381_9)"/>
<path d="M127.195 144.304C120.79 148.254 113.403 150.321 105.878 150.269C105.616 151.073 104.943 152.326 104.681 153.111C113.077 154.663 121.604 150.811 127.195 144.304Z" fill="#44CFB8"/>
<path d="M155.936 223.981L158.273 321.105L153.131 326.116L147.615 230.264L4.97693 213.248L12.868 206.479L155.936 223.981Z" fill="#547587"/>
<path d="M147.615 230.263L153.131 326.116L30.3518 315.999L4.97693 213.247L147.615 230.263Z" fill="url(#paint15_linear_381_9)"/>
<path style="mix-blend-mode:screen" d="M49.9859 218.614L89.5909 320.974L74.1827 319.702C74.1827 319.702 24.8542 215.716 25.0038 215.734L49.9859 218.614ZM62.3274 220.091L92.3957 320.974L112.441 322.843L96.8648 224.205L62.3274 220.091Z" fill="url(#paint16_linear_381_9)"/>
<path d="M41.0478 261.846C41.5127 265.031 40.8514 268.278 39.1779 271.027C33.2057 270.366 27.1966 270.098 21.1892 270.223C20.1129 272.921 19.4814 275.775 19.3193 278.675C25.6334 283.31 32.7448 286.745 40.2998 288.81C41.2455 290.825 41.7591 293.016 41.8074 295.241C41.8557 297.467 41.4377 299.677 40.5803 301.732C39.2527 301.881 38.4673 302.236 37.1396 302.386C37.1504 302.473 37.1504 302.561 37.1396 302.648C29.3805 301.67 21.9172 299.057 15.2429 294.981C17.708 298.955 21.5481 301.883 26.0323 303.209C29.8178 304.322 33.7221 304.981 37.6632 305.172C38.0614 308.164 37.3998 311.2 35.7933 313.755C26.7055 313.325 17.8233 309.099 10.2689 305.771C5.06074 298.663 1.70309 290.371 0.498543 281.642C-0.706007 272.913 0.2804 264.022 3.36886 255.769C16.0095 253.749 30.2209 254.909 41.0478 261.846Z" fill="url(#paint17_radial_381_9)"/>
<path d="M37.2518 302.648C37.5089 303.47 37.6843 304.316 37.7753 305.173C33.8343 304.981 29.9299 304.322 26.1444 303.209C21.6602 301.883 17.8201 298.955 15.355 294.981C22.0294 299.057 29.4927 301.67 37.2518 302.648Z" fill="#1D2243"/>
<path d="M132.749 311.886C139.461 312.017 146.173 311.585 152.813 310.596C146.622 313.564 139.945 315.389 133.104 315.981C132.81 314.669 132.69 313.323 132.749 311.979V311.886Z" fill="#1D2243"/>
<path d="M175.177 304.781C174.622 309.23 173.484 313.587 171.793 317.74C171.437 317.927 171.063 318.132 170.689 318.301C160.031 323.574 145.558 323.443 134.17 321.124C133.908 319.441 133.422 317.721 133.104 315.982C139.944 315.389 146.621 313.565 152.813 310.596C146.173 311.586 139.461 312.018 132.749 311.887V311.98C130.29 311.986 127.842 311.652 125.475 310.989C123.375 306.812 122.863 302.014 124.035 297.488C131.811 296.96 139.552 295.998 147.222 294.609C147.914 291.329 147.818 287.933 146.941 284.698C140.066 280.72 132.411 278.277 124.502 277.536C123.74 275.855 123.367 274.023 123.413 272.177C123.458 270.331 123.92 268.52 124.764 266.878C136.161 263.775 148.131 263.417 159.694 265.831C160.498 265.382 161.284 264.896 162.069 264.409C169.558 272.468 174.235 282.735 175.401 293.674C175.738 297.373 175.663 301.098 175.177 304.781Z" fill="url(#paint18_radial_381_9)"/>
<path d="M200.047 277.461C206.078 265.823 209.775 253.119 210.93 240.062C212.076 245.667 212.291 251.423 211.566 257.097C209.91 267.995 206.096 278.453 200.346 287.858C193.372 299.956 184.097 311.232 171.774 317.776C173.465 313.624 174.603 309.267 175.158 304.818C185.657 297.976 194.226 288.557 200.047 277.461Z" fill="#CF5B44"/>
<path d="M210.93 240.1C209.775 253.156 206.078 265.86 200.047 277.498C194.225 288.578 185.664 297.984 175.177 304.817C175.644 301.133 175.701 297.407 175.345 293.71C174.221 282.789 169.597 272.524 162.162 264.446C173.559 256.967 182.343 246.124 187.294 233.424C188.297 230.234 189.799 227.224 191.745 224.504C193.914 221.943 197.541 220.26 200.627 221.512C202.442 222.402 203.942 223.824 204.927 225.589C207.841 229.996 209.879 234.922 210.93 240.1Z" fill="url(#paint19_linear_381_9)"/>
<path style="mix-blend-mode:screen" d="M175.402 287.97C174.398 279.135 170.484 270.886 164.276 264.521C175.643 257.922 184.268 247.466 188.584 235.051C190.324 234.864 190.922 236.173 191.445 237.856C196.812 255.527 189.052 275.591 175.402 287.97Z" fill="url(#paint20_linear_381_9)"/>
<defs>
<linearGradient id="paint0_linear_381_9" x1="113.862" y1="356.128" x2="100.324" y2="296.178" gradientUnits="userSpaceOnUse">
<stop stop-color="#FBA746"/>
<stop offset="1" stop-color="#DE731F"/>
</linearGradient>
<linearGradient id="paint1_linear_381_9" x1="85.7201" y1="311.512" x2="93.873" y2="360.486" gradientUnits="userSpaceOnUse">
<stop stop-color="#FF8759"/>
<stop offset="1" stop-color="#AB1535"/>
</linearGradient>
<linearGradient id="paint2_linear_381_9" x1="97.5007" y1="299.245" x2="96.3227" y2="348.685" gradientUnits="userSpaceOnUse">
<stop stop-color="#BCBD99"/>
<stop offset="0.16" stop-color="#9C9D7F"/>
<stop offset="0.74" stop-color="#2C2D24"/>
<stop offset="1"/>
</linearGradient>
<linearGradient id="paint3_linear_381_9" x1="164.743" y1="294.945" x2="105.972" y2="223.57" gradientUnits="userSpaceOnUse">
<stop stop-color="#FBA746"/>
<stop offset="1" stop-color="#DE731F"/>
</linearGradient>
<linearGradient id="paint4_linear_381_9" x1="105.485" y1="219.399" x2="138.377" y2="270.486" gradientUnits="userSpaceOnUse">
<stop stop-color="#BCBD99"/>
<stop offset="0.16" stop-color="#9C9D7F"/>
<stop offset="0.74" stop-color="#2C2D24"/>
<stop offset="1"/>
</linearGradient>
<linearGradient id="paint5_linear_381_9" x1="183.61" y1="302.853" x2="186.06" y2="357.605" gradientUnits="userSpaceOnUse">
<stop stop-color="#FF8759"/>
<stop offset="1" stop-color="#AB1535"/>
</linearGradient>
<linearGradient id="paint6_linear_381_9" x1="187.799" y1="377.669" x2="181.722" y2="256.854" gradientUnits="userSpaceOnUse">
<stop stop-color="#FBA746"/>
<stop offset="1" stop-color="#DE731F"/>
</linearGradient>
<linearGradient id="paint7_linear_381_9" x1="176.655" y1="276.002" x2="185.817" y2="335.204" gradientUnits="userSpaceOnUse">
<stop stop-color="#BCBD99"/>
<stop offset="0.16" stop-color="#9C9D7F"/>
<stop offset="0.74" stop-color="#2C2D24"/>
<stop offset="1"/>
</linearGradient>
<radialGradient id="paint8_radial_381_9" cx="0" cy="0" r="1" gradientUnits="userSpaceOnUse" gradientTransform="translate(100.678 60.2955) rotate(11.34) scale(121.657 121.657)">
<stop stop-color="#3E6785"/>
<stop offset="1" stop-color="#1D2243"/>
</radialGradient>
<linearGradient id="paint9_linear_381_9" x1="233.305" y1="70.4534" x2="207.192" y2="146.08" gradientUnits="userSpaceOnUse">
<stop stop-color="#FF8759"/>
<stop offset="1" stop-color="#AB1535"/>
</linearGradient>
<linearGradient id="paint10_linear_381_9" x1="231.313" y1="79.1522" x2="203.965" y2="158.364" gradientUnits="userSpaceOnUse">
<stop stop-color="#FF8759"/>
<stop offset="1" stop-color="#AB1535"/>
</linearGradient>
<linearGradient id="paint11_linear_381_9" x1="157.751" y1="208.217" x2="133.713" y2="10.2592" gradientUnits="userSpaceOnUse">
<stop stop-color="#FBA746"/>
<stop offset="1" stop-color="#DE731F"/>
</linearGradient>
<linearGradient id="paint12_linear_381_9" x1="97.6678" y1="-17.033" x2="136.442" y2="120.563" gradientUnits="userSpaceOnUse">
<stop stop-color="#BCBD99"/>
<stop offset="0.16" stop-color="#9C9D7F"/>
<stop offset="0.74" stop-color="#2C2D24"/>
<stop offset="1"/>
</linearGradient>
<linearGradient id="paint13_linear_381_9" x1="72.4533" y1="120.203" x2="66.4556" y2="46.9292" gradientUnits="userSpaceOnUse">
<stop stop-color="#BCBD99"/>
<stop offset="0.16" stop-color="#9C9D7F"/>
<stop offset="0.74" stop-color="#2C2D24"/>
<stop offset="1"/>
</linearGradient>
<linearGradient id="paint14_linear_381_9" x1="129.943" y1="123.112" x2="141.173" y2="15.4738" gradientUnits="userSpaceOnUse">
<stop stop-color="#BCBD99"/>
<stop offset="0.16" stop-color="#9C9D7F"/>
<stop offset="0.74" stop-color="#2C2D24"/>
<stop offset="1"/>
</linearGradient>
<linearGradient id="paint15_linear_381_9" x1="74.6502" y1="206.684" x2="86.5429" y2="315.363" gradientUnits="userSpaceOnUse">
<stop stop-color="#B2DBC4"/>
<stop offset="1" stop-color="#375D75"/>
</linearGradient>
<linearGradient id="paint16_linear_381_9" x1="40.5989" y1="177.868" x2="114.76" y2="333.184" gradientUnits="userSpaceOnUse">
<stop stop-color="#8DA87E"/>
<stop offset="0.08" stop-color="#79906C"/>
<stop offset="0.23" stop-color="#54644B"/>
<stop offset="0.38" stop-color="#364030"/>
<stop offset="0.54" stop-color="#1E241B"/>
<stop offset="0.69" stop-color="#0D100C"/>
<stop offset="0.84" stop-color="#030403"/>
<stop offset="1"/>
</linearGradient>
<radialGradient id="paint17_radial_381_9" cx="0" cy="0" r="1" gradientUnits="userSpaceOnUse" gradientTransform="translate(14.4949 257.396) scale(71.5806 71.5806)">
<stop stop-color="#3E6785"/>
<stop offset="1" stop-color="#1D2243"/>
</radialGradient>
<radialGradient id="paint18_radial_381_9" cx="0" cy="0" r="1" gradientUnits="userSpaceOnUse" gradientTransform="translate(143.706 259.267) scale(95.9457 95.9457)">
<stop stop-color="#3E6785"/>
<stop offset="1" stop-color="#1D2243"/>
</radialGradient>
<linearGradient id="paint19_linear_381_9" x1="162.162" y1="262.913" x2="210.93" y2="262.913" gradientUnits="userSpaceOnUse">
<stop stop-color="#FBA746"/>
<stop offset="1" stop-color="#DE731F"/>
</linearGradient>
<linearGradient id="paint20_linear_381_9" x1="155.805" y1="258.219" x2="197.093" y2="263.343" gradientUnits="userSpaceOnUse">
<stop stop-color="#BCBD99"/>
<stop offset="0.16" stop-color="#9C9D7F"/>
<stop offset="0.74" stop-color="#2C2D24"/>
<stop offset="1"/>
</linearGradient>
</defs>
</svg>
