<svg width="50" height="50" viewBox="0 0 50 50" fill="none" xmlns="http://www.w3.org/2000/svg">
<path d="M31.875 34.7915L34.7916 31.8748L27.0833 24.1665V14.5832H22.9166V25.8332L31.875 34.7915ZM25 45.8332C22.118 45.8332 19.4097 45.2863 16.875 44.1925C14.3402 43.0988 12.1354 41.6144 10.2604 39.7394C8.38538 37.8644 6.901 35.6596 5.80725 33.1248C4.7135 30.5901 4.16663 27.8818 4.16663 24.9998C4.16663 22.1179 4.7135 19.4096 5.80725 16.8748C6.901 14.3401 8.38538 12.1353 10.2604 10.2603C12.1354 8.38525 14.3402 6.90088 16.875 5.80713C19.4097 4.71338 22.118 4.1665 25 4.1665C27.8819 4.1665 30.5902 4.71338 33.125 5.80713C35.6597 6.90088 37.8645 8.38525 39.7395 10.2603C41.6145 12.1353 43.0989 14.3401 44.1927 16.8748C45.2864 19.4096 45.8333 22.1179 45.8333 24.9998C45.8333 27.8818 45.2864 30.5901 44.1927 33.1248C43.0989 35.6596 41.6145 37.8644 39.7395 39.7394C37.8645 41.6144 35.6597 43.0988 33.125 44.1925C30.5902 45.2863 27.8819 45.8332 25 45.8332ZM25 41.6665C29.618 41.6665 33.5503 40.0432 36.7968 36.7967C40.0434 33.5502 41.6666 29.6179 41.6666 24.9998C41.6666 20.3818 40.0434 16.4495 36.7968 13.203C33.5503 9.95643 29.618 8.33317 25 8.33317C20.3819 8.33317 16.4496 9.95643 13.2031 13.203C9.95656 16.4495 8.33329 20.3818 8.33329 24.9998C8.33329 29.6179 9.95656 33.5502 13.2031 36.7967C16.4496 40.0432 20.3819 41.6665 25 41.6665Z" fill="#FF5733"/>
</svg>
