<svg width="50" height="50" viewBox="0 0 50 50" fill="none" xmlns="http://www.w3.org/2000/svg">
<path d="M2.08325 41.6663V35.833C2.08325 34.6525 2.38707 33.5674 2.99471 32.5778C3.60235 31.5882 4.40964 30.833 5.41659 30.3122C7.56936 29.2358 9.75686 28.4285 11.9791 27.8903C14.2013 27.3521 16.4583 27.083 18.7499 27.083C21.0416 27.083 23.2985 27.3521 25.5208 27.8903C27.743 28.4285 29.9305 29.2358 32.0833 30.3122C33.0902 30.833 33.8975 31.5882 34.5051 32.5778C35.1128 33.5674 35.4166 34.6525 35.4166 35.833V41.6663H2.08325ZM39.5833 41.6663V35.4163C39.5833 33.8886 39.1579 32.4215 38.3072 31.0153C37.4565 29.609 36.2499 28.4025 34.6874 27.3955C36.4583 27.6038 38.1249 27.9597 39.6874 28.4632C41.2499 28.9667 42.7083 29.583 44.0624 30.3122C45.3124 31.0066 46.2673 31.7792 46.927 32.6299C47.5867 33.4806 47.9166 34.4094 47.9166 35.4163V41.6663H39.5833ZM18.7499 24.9997C16.4583 24.9997 14.4964 24.1837 12.8645 22.5518C11.2326 20.9198 10.4166 18.958 10.4166 16.6663C10.4166 14.3747 11.2326 12.4129 12.8645 10.7809C14.4964 9.14898 16.4583 8.33301 18.7499 8.33301C21.0416 8.33301 23.0034 9.14898 24.6353 10.7809C26.2673 12.4129 27.0833 14.3747 27.0833 16.6663C27.0833 18.958 26.2673 20.9198 24.6353 22.5518C23.0034 24.1837 21.0416 24.9997 18.7499 24.9997ZM39.5833 16.6663C39.5833 18.958 38.7673 20.9198 37.1353 22.5518C35.5034 24.1837 33.5416 24.9997 31.2499 24.9997C30.868 24.9997 30.3819 24.9563 29.7916 24.8695C29.2013 24.7827 28.7152 24.6872 28.3333 24.583C29.2708 23.4719 29.9912 22.2393 30.4947 20.8851C30.9982 19.5309 31.2499 18.1247 31.2499 16.6663C31.2499 15.208 30.9982 13.8018 30.4947 12.4476C29.9912 11.0934 29.2708 9.86079 28.3333 8.74967C28.8194 8.57606 29.3055 8.46322 29.7916 8.41113C30.2777 8.35905 30.7638 8.33301 31.2499 8.33301C33.5416 8.33301 35.5034 9.14898 37.1353 10.7809C38.7673 12.4129 39.5833 14.3747 39.5833 16.6663ZM6.24992 37.4997H31.2499V35.833C31.2499 35.4511 31.1544 35.1038 30.9635 34.7913C30.7725 34.4788 30.5208 34.2358 30.2083 34.0622C28.3333 33.1247 26.4409 32.4215 24.5312 31.9528C22.6214 31.484 20.6944 31.2497 18.7499 31.2497C16.8055 31.2497 14.8784 31.484 12.9687 31.9528C11.0589 32.4215 9.16659 33.1247 7.29159 34.0622C6.97909 34.2358 6.72735 34.4788 6.53638 34.7913C6.34541 35.1038 6.24992 35.4511 6.24992 35.833V37.4997ZM18.7499 20.833C19.8958 20.833 20.8767 20.425 21.6926 19.609C22.5086 18.7931 22.9166 17.8122 22.9166 16.6663C22.9166 15.5205 22.5086 14.5396 21.6926 13.7236C20.8767 12.9077 19.8958 12.4997 18.7499 12.4997C17.6041 12.4997 16.6232 12.9077 15.8072 13.7236C14.9912 14.5396 14.5833 15.5205 14.5833 16.6663C14.5833 17.8122 14.9912 18.7931 15.8072 19.609C16.6232 20.425 17.6041 20.833 18.7499 20.833Z" fill="#FF5733"/>
</svg>
