<svg width="50" height="50" viewBox="0 0 50 50" fill="none" xmlns="http://www.w3.org/2000/svg">
<path d="M44.5833 29.6878L29.6875 44.5837C29.2708 45.0003 28.802 45.3128 28.2812 45.5212C27.7604 45.7295 27.2395 45.8337 26.7187 45.8337C26.1979 45.8337 25.677 45.7295 25.1562 45.5212C24.6354 45.3128 24.1666 45.0003 23.75 44.5837L5.36454 26.1982C4.9826 25.8163 4.68746 25.3736 4.47913 24.8701C4.27079 24.3666 4.16663 23.8371 4.16663 23.2816V8.33366C4.16663 7.18783 4.57461 6.20692 5.39058 5.39095C6.20656 4.57498 7.18746 4.16699 8.33329 4.16699H23.2812C23.8368 4.16699 24.375 4.27984 24.8958 4.50553C25.4166 4.73123 25.868 5.03505 26.25 5.41699L44.5833 23.8024C45 24.2191 45.3038 24.6878 45.4948 25.2087C45.6857 25.7295 45.7812 26.2503 45.7812 26.7712C45.7812 27.292 45.6857 27.8041 45.4948 28.3076C45.3038 28.8111 45 29.2712 44.5833 29.6878ZM26.7187 41.667L41.6145 26.7712L23.2291 8.33366H8.33329V23.2295L26.7187 41.667ZM13.5416 16.667C14.4097 16.667 15.1475 16.3632 15.7552 15.7555C16.3628 15.1479 16.6666 14.41 16.6666 13.542C16.6666 12.6739 16.3628 11.9361 15.7552 11.3285C15.1475 10.7208 14.4097 10.417 13.5416 10.417C12.6736 10.417 11.9357 10.7208 11.3281 11.3285C10.7204 11.9361 10.4166 12.6739 10.4166 13.542C10.4166 14.41 10.7204 15.1479 11.3281 15.7555C11.9357 16.3632 12.6736 16.667 13.5416 16.667Z" fill="#FF5733"/>
</svg>
